HIERARCHY
ROOT Hips
{
	OFFSET 0.000000 0.000000 0.000000
	CHANNELS 6 Xposition Yposition Zposition Zrotation Yrotation Xrotation 
	JOINT LHipJoint
	{
		OFFSET 0.000000 0.000000 0.000000
		CHANNELS 3 Zrotation Yrotation Xrotation
		JOINT LeftUpLeg
		{
			OFFSET 1.363060 -1.794630 0.839290
			CHANNELS 3 Zrotation Yrotation Xrotation
			JOINT LeftLeg
			{
				OFFSET 2.448110 -6.726130 0.000000
				CHANNELS 3 Zrotation Yrotation Xrotation
				JOINT LeftFoot
				{
					OFFSET 2.562200 -7.039590 0.000000
					CHANNELS 3 Zrotation Yrotation Xrotation
					JOINT LeftToeBase
					{
						OFFSET 0.157640 -0.433110 2.322550
						CHANNELS 3 Zrotation Yrotation Xrotation
						End Site
						{
							OFFSET 0.000000 0.000000 0.000000
						}
					}
				}
			}
		}
	}
	JOINT RHipJoint
	{
		OFFSET 0.000000 0.000000 0.000000
		CHANNELS 3 Zrotation Yrotation Xrotation
		JOINT RightUpLeg
		{
			OFFSET -1.305520 -1.794630 0.839290
			CHANNELS 3 Zrotation Yrotation Xrotation
			JOINT RightLeg
			{
				OFFSET -2.542530 -6.985550 0.000000
				CHANNELS 3 Zrotation Yrotation Xrotation
				JOINT RightFoot
				{
					OFFSET -2.568260 -7.056230 0.000000
					CHANNELS 3 Zrotation Yrotation Xrotation
					JOINT RightToeBase
					{
						OFFSET -0.164730 -0.452590 2.363150
						CHANNELS 3 Zrotation Yrotation Xrotation
						End Site
						{
							OFFSET 0.000000 0.000000 0.000000
						}
					}
				}
			}
		}
	}
	JOINT LowerBack
	{
		OFFSET 0.000000 0.000000 0.000000
		CHANNELS 3 Zrotation Yrotation Xrotation
		JOINT Spine
		{
			OFFSET 0.028270 2.035590 -0.193380
			CHANNELS 3 Zrotation Yrotation Xrotation
			JOINT Spine1
			{
				OFFSET 0.056720 2.048850 -0.042750
				CHANNELS 3 Zrotation Yrotation Xrotation
				JOINT Neck
				{
					OFFSET 0.000000 0.000000 0.000000
					CHANNELS 3 Zrotation Yrotation Xrotation
					JOINT Neck1
					{
						OFFSET -0.054170 1.746240 0.172020
						CHANNELS 3 Zrotation Yrotation Xrotation
						JOINT Head
						{
							OFFSET 0.104070 1.761360 -0.123970
							CHANNELS 3 Zrotation Yrotation Xrotation
							End Site
							{
								OFFSET 0.000000 0.000000 0.000000
							}
						}
					}
				}
				JOINT LeftShoulder
				{
					OFFSET 0.000000 0.000000 0.000000
					CHANNELS 3 Zrotation Yrotation Xrotation
					JOINT LeftArm
					{
						OFFSET 3.362410 1.200890 -0.311210
						CHANNELS 3 Zrotation Yrotation Xrotation
						JOINT LeftForeArm
						{
							OFFSET 4.983000 -0.000000 -0.000000
							CHANNELS 3 Zrotation Yrotation Xrotation
							JOINT LeftHand
							{
								OFFSET 3.483560 -0.000000 -0.000000
								CHANNELS 3 Zrotation Yrotation Xrotation
								JOINT LeftFingerBase
								{
									OFFSET 0.000000 0.000000 0.000000
									CHANNELS 3 Zrotation Yrotation Xrotation
									JOINT LeftHandIndex1
									{
										OFFSET 0.715260 -0.000000 -0.000000
										CHANNELS 3 Zrotation Yrotation Xrotation
										End Site
										{
											OFFSET 0.000000 0.000000 0.000000
										}
									}
								}
								JOINT LThumb
								{
									OFFSET 0.000000 0.000000 0.000000
									CHANNELS 3 Zrotation Yrotation Xrotation
									End Site
									{
										OFFSET 0.000000 0.000000 0.000000
									}
								}
							}
						}
					}
				}
				JOINT RightShoulder
				{
					OFFSET 0.000000 0.000000 0.000000
					CHANNELS 3 Zrotation Yrotation Xrotation
					JOINT RightArm
					{
						OFFSET -3.136600 1.374050 -0.404650
						CHANNELS 3 Zrotation Yrotation Xrotation
						JOINT RightForeArm
						{
							OFFSET -5.241900 -0.000000 -0.000000
							CHANNELS 3 Zrotation Yrotation Xrotation
							JOINT RightHand
							{
								OFFSET -3.444170 -0.000000 -0.000000
								CHANNELS 3 Zrotation Yrotation Xrotation
								JOINT RightFingerBase
								{
									OFFSET 0.000000 0.000000 0.000000
									CHANNELS 3 Zrotation Yrotation Xrotation
									JOINT RightHandIndex1
									{
										OFFSET -0.622530 -0.000000 -0.000000
										CHANNELS 3 Zrotation Yrotation Xrotation
										End Site
										{
											OFFSET 0.000000 0.000000 0.000000
										}
									}
								}
								JOINT RThumb
								{
									OFFSET 0.000000 0.000000 0.000000
									CHANNELS 3 Zrotation Yrotation Xrotation
									End Site
									{
										OFFSET 0.000000 0.000000 0.000000
									}
								}
							}
						}
					}
				}
			}
		}
	}
}
MOTION
Frames: 10
Frame Time: 0.008333
5.817169 15.327937 36.576823 167.980747 -9.507370 -54.990298 12.269826 -9.401976 -28.672664 11.633010 -14.170695 -68.638396 -11.543014 17.144716 5.600932 -12.346883 30.077454 16.772553 0.920100 -6.111300 -17.107700 -9.926080 10.069221 -22.994498 -83.373569 51.302506 -83.863073 -2.192994 -25.202207 20.700429 17.039867 -49.185693 -44.844385 -0.333100 -3.709300 10.260300 -11.618915 -19.727701 24.643740 34.389027 -44.036939 8.971780 3.971713 12.093189 -29.438388 7.372271 -0.142667 -17.538820 3.024777 -1.493246 9.017415 -0.534800 -0.447400 13.830300 31.011758 13.711715 -19.068412 32.363431 -9.230582 -89.170813 -1.888406 -6.441892 -0.505779 -19.279602 -8.440598 -23.659854 27.409460 -11.086955 -10.756200 -7.125000 0.000000 0.000000 14.813600 15.871200 -10.561100 -30.428823 33.725957 17.276897 -58.835175 -19.254775 -72.710476 1.012555 14.933354 -1.979836 13.580097 11.708324 -4.207247 -23.731714 -18.460119 19.946600 7.125000 0.000000 0.000000 -10.004000 -63.296000 4.464200 
5.820150 15.368115 36.521171 167.708271 -10.413637 -55.710295 12.048035 -9.353437 -28.901785 12.066729 -14.415965 -67.172257 -11.864646 17.112773 4.783615 -12.780179 31.010049 16.981288 0.965300 -6.255500 -17.527400 -9.311279 10.461519 -22.994054 -83.257986 52.572968 -83.285467 -2.133088 -25.181314 20.210466 17.026670 -47.027167 -43.002804 -0.701000 -5.351500 14.914000 -12.423990 -20.035424 25.681255 34.417299 -37.775710 11.461035 3.329157 10.518441 -31.100041 6.806830 0.086071 -18.471621 2.853557 -1.512727 9.039646 -0.565600 -0.457600 13.750000 30.634400 12.420873 -18.498566 32.127653 -8.558030 -89.568345 -1.511161 -5.884022 -0.528774 -19.220209 -8.103575 -24.244056 27.093353 -11.698974 -11.622600 -7.125000 0.000000 0.000000 14.229100 14.584300 -10.523000 -30.845326 31.566969 16.282064 -59.049853 -17.682051 -73.038648 2.391385 15.207647 -2.086894 13.217681 12.335356 -5.728026 -23.509544 -18.355679 19.902700 7.125000 0.000000 0.000000 -9.682800 -63.418300 4.347200 
5.822705 15.405736 36.466655 167.421690 -10.966645 -56.585746 11.627968 -9.576276 -28.993709 12.463791 -14.670778 -65.822835 -12.200987 17.119900 4.107590 -13.055110 31.646238 17.154413 0.965000 -6.254500 -17.524800 -8.977335 10.579806 -22.900493 -83.088104 53.934993 -82.776827 -2.164008 -25.197562 19.791276 17.010704 -44.926053 -41.049412 -1.186300 -6.911900 19.454700 -12.625877 -19.072800 26.454515 34.873695 -36.618437 12.372189 3.387051 10.515174 -32.104303 6.598110 0.064461 -18.429119 2.853842 -1.529025 9.024555 -0.639500 -0.447500 13.565500 30.441045 11.441892 -17.855197 31.941418 -8.282847 -88.828428 -1.327785 -5.669904 -0.587321 -19.130850 -8.272597 -24.880983 27.158370 -11.821979 -11.796200 -7.125000 0.000000 0.000000 14.228100 14.367100 -10.590300 -30.904026 30.777460 15.547214 -58.905363 -16.482760 -73.438126 3.286922 14.950146 -2.224665 12.693026 12.840973 -7.152358 -23.288234 -18.294713 19.745200 7.125000 0.000000 0.000000 -9.128900 -63.488200 4.111300 
5.825971 15.439241 36.413701 167.157629 -11.672914 -57.395215 11.312173 -9.688270 -29.087703 12.890503 -14.946392 -64.470315 -12.419979 17.125485 3.459255 -13.406101 32.377213 17.330927 0.985100 -6.317500 -17.708300 -8.458030 10.780740 -22.791578 -82.943718 55.138027 -82.308101 -2.198375 -25.222408 19.362739 17.012074 -43.046575 -39.047417 -1.720800 -8.258500 23.502100 -13.098444 -18.623700 27.285442 35.181050 -31.573209 14.424071 2.874474 9.015702 -33.694076 5.908807 0.270283 -19.311469 2.888988 -1.450854 8.992406 -0.565700 -0.420700 13.451300 30.311772 10.314330 -17.066455 31.482381 -7.526260 -87.685272 -1.189533 -5.157094 -0.654187 -19.046891 -8.629311 -25.498276 27.510461 -11.824935 -11.831200 -7.125000 0.000000 0.000000 14.538900 14.442000 -10.813700 -31.373556 28.660388 14.411512 -58.689972 -14.945118 -74.282576 4.834072 14.759182 -2.357619 11.972627 12.871637 -8.952336 -22.721389 -17.222684 18.435200 7.125000 0.000000 0.000000 -8.134400 -61.844000 3.345600 
5.827532 15.466073 36.364579 166.894474 -12.361976 -58.142412 11.046692 -9.763309 -29.156177 13.286657 -15.243104 -63.216708 -12.586845 17.157508 2.897514 -13.722317 33.000429 17.482774 0.994100 -6.345400 -17.790000 -7.862077 10.966389 -22.672377 -82.861724 56.183295 -81.943826 -2.241798 -25.287774 18.945482 17.164286 -41.939661 -37.410877 -2.127600 -9.127000 26.193300 -13.654741 -18.412604 28.084357 35.706000 -26.350979 16.685303 2.271370 7.128259 -35.418235 5.335411 0.455118 -20.171891 2.909189 -1.391228 8.923250 -0.522500 -0.398000 13.331700 30.421814 9.576324 -16.446780 30.873894 -6.757170 -86.688068 -1.235905 -4.749372 -0.707749 -18.968391 -8.923314 -26.093339 27.739766 -11.871629 -11.905100 -7.125000 0.000000 0.000000 14.736800 14.425400 -10.976800 -31.954197 26.797059 13.426158 -58.375742 -13.777691 -75.283778 6.247916 14.769021 -2.471633 11.374766 12.891664 -10.370318 -22.057564 -16.346640 17.272900 7.125000 0.000000 0.000000 -7.067400 -60.487200 2.676700 
5.827958 15.489214 36.315884 166.581051 -13.045176 -58.850667 10.837875 -9.837972 -29.229398 13.655413 -15.581719 -61.994502 -12.677804 17.212434 2.410770 -14.023898 33.543387 17.634200 0.993400 -6.343400 -17.784100 -7.162040 11.142905 -22.508522 -82.873440 57.091316 -81.646700 -2.243516 -25.367184 18.523384 17.420894 -41.363784 -36.070839 -2.416200 -9.683800 27.958900 -14.356472 -18.293109 28.883388 36.610066 -20.248368 19.573423 1.605903 4.537866 -37.530431 4.735754 0.673984 -21.231402 2.954016 -1.314585 8.813284 -0.466500 -0.369700 13.226500 30.872071 9.204636 -15.909498 29.915988 -5.812200 -85.539055 -1.514833 -4.323885 -0.752174 -18.911789 -9.301978 -26.658238 27.988162 -11.879077 -11.900800 -7.125000 0.000000 0.000000 15.015600 14.534400 -11.163700 -32.664188 24.986330 12.366066 -57.957574 -12.838639 -76.701966 7.700223 15.116829 -2.558101 10.807477 12.701663 -11.515757 -21.178764 -15.228715 15.788600 7.125000 0.000000 0.000000 -5.770200 -58.686900 1.934900 
5.827532 15.510083 36.265911 166.181360 -13.640156 -59.545086 10.618288 -9.985211 -29.325848 13.985732 -15.952586 -60.761643 -12.703175 17.288040 1.970521 -14.323060 34.046452 17.795290 0.987300 -6.324400 -17.728700 -6.411237 11.252243 -22.272236 -82.995730 57.895148 -81.405202 -2.193425 -25.454333 18.086527 17.769462 -41.187091 -34.978495 -2.602200 -10.021400 29.046000 -15.022910 -18.040043 29.716741 37.925146 -14.161520 22.916710 1.100278 1.466723 -39.952725 4.254438 0.885627 -22.377142 3.040519 -1.243797 8.647007 -0.413300 -0.341600 13.132400 31.722437 9.302954 -15.550880 28.635570 -4.744885 -84.391541 -2.047557 -4.013552 -0.778775 -18.908154 -9.714930 -27.217363 28.157275 -11.931140 -11.930800 -7.125000 0.000000 0.000000 15.280900 14.594800 -11.355600 -33.291787 23.673366 11.258973 -57.410291 -12.371018 -78.550581 8.719358 16.204456 -2.608505 10.315234 12.345594 -12.297928 -20.150220 -13.967381 14.147200 7.125000 0.000000 0.000000 -4.366300 -56.623700 1.245800 
5.826255 15.529533 36.213525 165.680711 -14.036054 -60.259733 10.298349 -10.280252 -29.441558 14.268893 -16.338846 -59.511014 -12.681798 17.383573 1.559203 -14.614627 34.523330 17.967744 0.976000 -6.289000 -17.625400 -5.705447 11.221418 -21.954699 -83.221442 58.642413 -81.209155 -2.100972 -25.544334 17.625738 18.217952 -41.340196 -34.092785 -2.701200 -10.194900 29.610300 -15.398861 -17.410992 30.607525 39.444968 -9.335236 26.197833 0.931885 -1.478921 -42.408175 4.054083 1.054452 -23.422048 3.180123 -1.192494 8.417305 -0.377900 -0.315700 13.035800 32.858724 9.785935 -15.391789 27.241725 -3.661534 -83.307282 -2.737561 -4.042447 -0.787034 -18.975330 -10.134616 -27.784121 28.209651 -12.035577 -12.029400 -7.125000 0.000000 0.000000 15.498700 14.554400 -11.544300 -33.596424 23.312079 10.139946 -56.609873 -12.593280 -80.696154 8.542090 18.328363 -2.632066 9.888653 11.921922 -12.785930 -19.077544 -12.729165 12.565800 7.125000 0.000000 0.000000 -2.975900 -54.585400 0.701300 
5.825261 15.548273 36.158157 165.113232 -14.250885 -61.004883 9.827503 -10.699180 -29.566584 14.521410 -16.692186 -58.265263 -12.656834 17.495668 1.159583 -14.905391 35.006564 18.136082 0.967100 -6.261200 -17.544100 -5.127734 11.037705 -21.590643 -83.487803 59.406840 -81.042592 -2.009508 -25.644016 17.150447 18.669378 -41.509563 -33.187265 -2.801600 -10.366800 30.172800 -15.354679 -16.427595 31.578014 40.771531 -6.624743 28.751238 1.139344 -3.630017 -44.423441 4.244995 1.120690 -24.234457 3.363441 -1.173283 8.133350 -0.366900 -0.294800 12.927200 34.007278 10.425698 -15.375512 26.077353 -2.675833 -82.317684 -3.376647 -4.632399 -0.783027 -19.117421 -10.511493 -28.340986 28.168672 -12.173909 -12.218000 -7.125000 0.000000 0.000000 15.663300 14.387000 -11.735200 -33.482222 24.055631 9.129811 -55.496541 -13.552532 -82.836745 6.682293 21.188013 -2.646966 9.501662 11.490253 -13.098043 -18.070967 -11.654761 11.191000 7.125000 0.000000 0.000000 -1.690100 -52.781600 0.323700 
5.824409 15.565735 36.099950 164.642416 -14.595212 -61.851661 9.254707 -11.034008 -29.619641 14.787248 -16.944808 -57.078719 -12.763332 17.613387 0.760330 -15.170496 35.471729 18.275174 0.959100 -6.236000 -17.470700 -4.660387 10.854943 -21.278023 -83.693549 60.329549 -81.009966 -2.001585 -25.808866 16.702583 19.113788 -41.770381 -32.381771 -2.886900 -10.509700 30.643600 -15.194866 -15.508649 32.470858 41.624559 -5.235827 30.261503 1.368130 -4.579301 -45.706300 4.472947 0.932153 -24.750843 3.489047 -1.202133 7.859210 -0.392000 -0.294800 12.785100 34.641916 10.660936 -15.183621 25.471950 -1.978365 -81.456115 -3.681207 -5.425524 -0.793258 -19.226087 -10.749477 -28.907143 28.169089 -12.347077 -12.531500 -7.125000 0.000000 0.000000 15.754800 14.045000 -11.929000 -33.335086 24.797027 8.343515 -54.327457 -14.213847 -84.530234 5.166663 23.022043 -2.656747 9.139077 11.043066 -13.151471 -17.239658 -10.800625 10.074000 7.125000 0.000000 0.000000 -0.567700 -51.294100 0.088000 
